<svg xmlns="http://www.w3.org/2000/svg" width="64" height="64" viewBox="0 0 64 64"><g><g><path fill="#fefefe" d="M31.996 0C49.641 0 64 14.352 64 31.996c0 17.645-14.358 32.003-32.003 32.003C14.353 63.999.001 49.64.001 31.996 0 14.352 14.353 0 31.996 0zm13.717 46.857A2.292 2.292 0 0 0 48 44.568a2.286 2.286 0 0 0-2.288-2.281H18.287a2.286 2.286 0 0 0-2.289 2.281 2.292 2.292 0 0 0 2.289 2.289zm0-12.573A2.292 2.292 0 0 0 48 31.996a2.286 2.286 0 0 0-2.288-2.281H18.287a2.286 2.286 0 0 0-2.289 2.28 2.292 2.292 0 0 0 2.289 2.29zm0-12.572A2.287 2.287 0 0 0 48 19.431a2.292 2.292 0 0 0-2.288-2.289H18.287a2.292 2.292 0 0 0-2.289 2.289 2.287 2.287 0 0 0 2.289 2.281z"/></g></g></svg>